<?xml version="1.0" encoding="iso-8859-1"?>
<!-- Generator: Adobe Illustrator 18.1.1, SVG Export Plug-In . SVG Version: 6.00 Build 0)  -->
<svg   version="1.1" id="Capa_1" xmlns="http://www.w3.org/2000/svg" xmlns:xlink="http://www.w3.org/1999/xlink" x="0px" y="0px"
	 viewBox="0 0 356.443 356.443" style="enable-background:new 0 0 356.443 356.443;" xml:space="preserve" fill="#0F7A2F">
<g>
	<g id="Layer_5_17_">
		<g>
			<path d="M206.327,117.726H27.209C12.243,117.726,0,129.969,0,144.934V324.05c0,14.965,12.243,27.209,27.209,27.209h179.118
				c14.962,0,27.206-12.244,27.206-27.209V144.934C233.534,129.969,221.289,117.726,206.327,117.726z M54.86,321.84
				c-14.053,0-25.439-11.389-25.439-25.438c0-14.048,11.387-25.438,25.439-25.438c14.047,0,25.436,11.39,25.436,25.438
				C80.295,310.451,68.907,321.84,54.86,321.84z M54.86,198.02c-14.051,0-25.439-11.388-25.439-25.437
				c0-14.05,11.389-25.439,25.439-25.439c14.047,0,25.438,11.39,25.438,25.439C80.298,186.632,68.907,198.02,54.86,198.02z
				 M116.768,256.695c-14.049,0-25.439-11.391-25.439-25.438c0-14.05,11.391-25.438,25.439-25.438
				c14.048,0,25.438,11.389,25.438,25.438C142.206,245.304,130.816,256.695,116.768,256.695z M178.676,321.84
				c-14.048,0-25.438-11.389-25.438-25.438c0-14.048,11.39-25.439,25.438-25.439c14.049,0,25.439,11.392,25.439,25.439
				C204.116,310.451,192.725,321.84,178.676,321.84z M178.676,198.02c-14.048,0-25.438-11.388-25.438-25.437
				c0-14.05,11.39-25.439,25.438-25.439c14.051,0,25.439,11.39,25.439,25.439C204.116,186.632,192.727,198.02,178.676,198.02z"/>
			<path d="M327.075,5.186L133.748,5.185c-16.15,0-29.365,13.215-29.365,29.366v43.904c0,0-0.515,10.95,12.069,10.95
				c23.413,0,97.973,0,97.973,0c26.791,0,48.588,21.797,48.588,48.589v106.515c0,12.734,11.445,12.734,17.424,12.734
				c23.088,0,46.639,0,46.639,0c16.152,0,29.367-13.215,29.367-29.367V34.551C356.442,18.4,343.227,5.185,327.075,5.186z
				 M297.231,91.848c-15.162,0-27.455-12.292-27.455-27.456c0-15.162,12.293-27.454,27.455-27.455
				c15.166,0,27.459,12.293,27.459,27.455C324.688,79.556,312.397,91.848,297.231,91.848z"/>
		</g>
	</g>
</g>
<g>
</g>
<g>
</g>
<g>
</g>
<g>
</g>
<g>
</g>
<g>
</g>
<g>
</g>
<g>
</g>
<g>
</g>
<g>
</g>
<g>
</g>
<g>
</g>
<g>
</g>
<g>
</g>
<g>
</g>
</svg>
