<?xml version="1.0"?>
<svg xmlns="http://www.w3.org/2000/svg" xmlns:xlink="http://www.w3.org/1999/xlink" version="1.1" id="Capa_1" x="0px" y="0px" viewBox="0 0 34.39 34.39" style="enable-background:new 0 0 34.39 34.39;" xml:space="preserve" width="512px" height="512px" class=""><g><g>
	<rect x="3.451" y="3.259" width="7.051" height="2.559" data-original="#000000" class="active-path" data-old_color="#000000" fill="#0F7A2F"/>
	<path d="M16.795,18.866c0,2.453-1.986,4.439-4.436,4.439c-2.453,0-4.438-1.986-4.438-4.439c0-2.447,1.984-4.436,4.438-4.436   C14.809,14.431,16.795,16.419,16.795,18.866z" data-original="#000000" class="active-path" data-old_color="#000000" fill="#0F7A2F"/>
	<path d="M31.939,6.605H2.453C1.102,6.605,0,7.7,0,9.057v19.619c0,1.359,1.102,2.455,2.453,2.455h29.486   c1.355,0,2.451-1.096,2.451-2.455V9.057C34.391,7.7,33.295,6.605,31.939,6.605z M27.668,8.595h2.986   c0.889,0,1.609,0.721,1.609,1.611c0,0.887-0.721,1.607-1.609,1.607h-2.986c-0.891,0-1.611-0.721-1.611-1.607   C26.057,9.316,26.777,8.595,27.668,8.595z M12.457,28.171c-5.139,0-9.303-4.164-9.303-9.303c0-5.137,4.164-9.303,9.303-9.303   s9.303,4.166,9.303,9.303C21.76,24.007,17.596,28.171,12.457,28.171z M32.547,26.468h-3.465v3.535h-3.018v-3.535h-3.512v-3.02   h3.512V20.01h3.018v3.438h3.465V26.468z" data-original="#000000" class="active-path" data-old_color="#000000" fill="#0F7A2F"/>
	<g>
	</g>
	<g>
	</g>
	<g>
	</g>
	<g>
	</g>
	<g>
	</g>
	<g>
	</g>
	<g>
	</g>
	<g>
	</g>
	<g>
	</g>
	<g>
	</g>
	<g>
	</g>
	<g>
	</g>
	<g>
	</g>
	<g>
	</g>
	<g>
	</g>
</g></g> </svg>
